<mxfile host="app.diagrams.net" agent="Mozilla/5.0 (Macintosh; Intel Mac OS X 10_15_7) AppleWebKit/537.36 (KHTML, like Gecko) Chrome/132.0.0.0 Safari/537.36" version="26.0.15">
  <diagram name="第 1 页" id="tEajQngZ7PuHsxjOIy0T">
    <mxGraphModel dx="1026" dy="650" grid="1" gridSize="10" guides="1" tooltips="1" connect="1" arrows="1" fold="1" page="1" pageScale="1" pageWidth="827" pageHeight="1169" math="0" shadow="0">
      <root>
        <mxCell id="0" />
        <mxCell id="1" parent="0" />
        <mxCell id="2VIQsZzZV8RpLs_PZSOd-15" value="" style="edgeStyle=orthogonalEdgeStyle;rounded=0;orthogonalLoop=1;jettySize=auto;html=1;" edge="1" parent="1" source="2VIQsZzZV8RpLs_PZSOd-2" target="2VIQsZzZV8RpLs_PZSOd-10">
          <mxGeometry relative="1" as="geometry">
            <Array as="points">
              <mxPoint x="290" y="370" />
              <mxPoint x="290" y="370" />
            </Array>
          </mxGeometry>
        </mxCell>
        <mxCell id="2VIQsZzZV8RpLs_PZSOd-2" value="pre" style="rounded=0;whiteSpace=wrap;html=1;fillColor=#ffe6cc;strokeColor=#d79b00;" vertex="1" parent="1">
          <mxGeometry x="310" y="330" width="30" height="60" as="geometry" />
        </mxCell>
        <mxCell id="2VIQsZzZV8RpLs_PZSOd-51" style="edgeStyle=orthogonalEdgeStyle;rounded=0;orthogonalLoop=1;jettySize=auto;html=1;entryX=0.5;entryY=0;entryDx=0;entryDy=0;" edge="1" parent="1" source="2VIQsZzZV8RpLs_PZSOd-3" target="2VIQsZzZV8RpLs_PZSOd-40">
          <mxGeometry relative="1" as="geometry" />
        </mxCell>
        <mxCell id="2VIQsZzZV8RpLs_PZSOd-3" value="value" style="rounded=0;whiteSpace=wrap;html=1;fillColor=#f8cecc;strokeColor=#b85450;" vertex="1" parent="1">
          <mxGeometry x="340" y="330" width="50" height="60" as="geometry" />
        </mxCell>
        <mxCell id="2VIQsZzZV8RpLs_PZSOd-11" style="edgeStyle=orthogonalEdgeStyle;rounded=0;orthogonalLoop=1;jettySize=auto;html=1;entryX=0;entryY=0.25;entryDx=0;entryDy=0;" edge="1" parent="1" source="2VIQsZzZV8RpLs_PZSOd-4" target="2VIQsZzZV8RpLs_PZSOd-5">
          <mxGeometry relative="1" as="geometry">
            <Array as="points">
              <mxPoint x="440" y="345" />
              <mxPoint x="440" y="345" />
            </Array>
          </mxGeometry>
        </mxCell>
        <mxCell id="2VIQsZzZV8RpLs_PZSOd-4" value="next" style="rounded=0;whiteSpace=wrap;html=1;fillColor=#fff2cc;strokeColor=#d6b656;" vertex="1" parent="1">
          <mxGeometry x="390" y="330" width="30" height="60" as="geometry" />
        </mxCell>
        <mxCell id="2VIQsZzZV8RpLs_PZSOd-12" value="" style="edgeStyle=orthogonalEdgeStyle;rounded=0;orthogonalLoop=1;jettySize=auto;html=1;" edge="1" parent="1" source="2VIQsZzZV8RpLs_PZSOd-5" target="2VIQsZzZV8RpLs_PZSOd-4">
          <mxGeometry relative="1" as="geometry">
            <Array as="points">
              <mxPoint x="450" y="370" />
              <mxPoint x="450" y="370" />
            </Array>
          </mxGeometry>
        </mxCell>
        <mxCell id="2VIQsZzZV8RpLs_PZSOd-5" value="pre" style="rounded=0;whiteSpace=wrap;html=1;fillColor=#ffe6cc;strokeColor=#d79b00;" vertex="1" parent="1">
          <mxGeometry x="460" y="330" width="30" height="60" as="geometry" />
        </mxCell>
        <mxCell id="2VIQsZzZV8RpLs_PZSOd-75" style="edgeStyle=orthogonalEdgeStyle;rounded=0;orthogonalLoop=1;jettySize=auto;html=1;entryX=0.5;entryY=0;entryDx=0;entryDy=0;" edge="1" parent="1" source="2VIQsZzZV8RpLs_PZSOd-6" target="2VIQsZzZV8RpLs_PZSOd-63">
          <mxGeometry relative="1" as="geometry" />
        </mxCell>
        <mxCell id="2VIQsZzZV8RpLs_PZSOd-6" value="value" style="rounded=0;whiteSpace=wrap;html=1;fillColor=#f8cecc;strokeColor=#b85450;" vertex="1" parent="1">
          <mxGeometry x="490" y="330" width="50" height="60" as="geometry" />
        </mxCell>
        <mxCell id="2VIQsZzZV8RpLs_PZSOd-7" value="next" style="rounded=0;whiteSpace=wrap;html=1;fillColor=#fff2cc;strokeColor=#d6b656;" vertex="1" parent="1">
          <mxGeometry x="540" y="330" width="30" height="60" as="geometry" />
        </mxCell>
        <mxCell id="2VIQsZzZV8RpLs_PZSOd-8" value="pre" style="rounded=0;whiteSpace=wrap;html=1;fillColor=#ffe6cc;strokeColor=#d79b00;" vertex="1" parent="1">
          <mxGeometry x="160" y="330" width="30" height="60" as="geometry" />
        </mxCell>
        <mxCell id="2VIQsZzZV8RpLs_PZSOd-17" value="" style="edgeStyle=orthogonalEdgeStyle;rounded=0;orthogonalLoop=1;jettySize=auto;html=1;" edge="1" parent="1" source="2VIQsZzZV8RpLs_PZSOd-9" target="2VIQsZzZV8RpLs_PZSOd-16">
          <mxGeometry relative="1" as="geometry" />
        </mxCell>
        <mxCell id="2VIQsZzZV8RpLs_PZSOd-9" value="value" style="rounded=0;whiteSpace=wrap;html=1;fillColor=#f8cecc;strokeColor=#b85450;" vertex="1" parent="1">
          <mxGeometry x="190" y="330" width="50" height="60" as="geometry" />
        </mxCell>
        <mxCell id="2VIQsZzZV8RpLs_PZSOd-14" style="edgeStyle=orthogonalEdgeStyle;rounded=0;orthogonalLoop=1;jettySize=auto;html=1;" edge="1" parent="1" source="2VIQsZzZV8RpLs_PZSOd-10">
          <mxGeometry relative="1" as="geometry">
            <mxPoint x="310" y="350" as="targetPoint" />
            <Array as="points">
              <mxPoint x="290" y="350" />
              <mxPoint x="290" y="350" />
            </Array>
          </mxGeometry>
        </mxCell>
        <mxCell id="2VIQsZzZV8RpLs_PZSOd-10" value="next" style="rounded=0;whiteSpace=wrap;html=1;fillColor=#fff2cc;strokeColor=#d6b656;" vertex="1" parent="1">
          <mxGeometry x="240" y="330" width="30" height="60" as="geometry" />
        </mxCell>
        <mxCell id="2VIQsZzZV8RpLs_PZSOd-16" value="" style="rounded=1;whiteSpace=wrap;html=1;fillColor=#d5e8d4;strokeColor=#82b366;" vertex="1" parent="1">
          <mxGeometry x="178.5" y="440" width="71.5" height="110" as="geometry" />
        </mxCell>
        <mxCell id="2VIQsZzZV8RpLs_PZSOd-18" value="free" style="rounded=0;whiteSpace=wrap;html=1;" vertex="1" parent="1">
          <mxGeometry x="190" y="450" width="50" height="30" as="geometry" />
        </mxCell>
        <mxCell id="2VIQsZzZV8RpLs_PZSOd-19" value="len" style="rounded=0;whiteSpace=wrap;html=1;" vertex="1" parent="1">
          <mxGeometry x="190" y="480" width="50" height="30" as="geometry" />
        </mxCell>
        <mxCell id="2VIQsZzZV8RpLs_PZSOd-28" style="edgeStyle=orthogonalEdgeStyle;rounded=0;orthogonalLoop=1;jettySize=auto;html=1;entryX=0;entryY=0.5;entryDx=0;entryDy=0;" edge="1" parent="1" source="2VIQsZzZV8RpLs_PZSOd-20" target="2VIQsZzZV8RpLs_PZSOd-21">
          <mxGeometry relative="1" as="geometry" />
        </mxCell>
        <mxCell id="2VIQsZzZV8RpLs_PZSOd-20" value="buf" style="rounded=0;whiteSpace=wrap;html=1;" vertex="1" parent="1">
          <mxGeometry x="190" y="510" width="50" height="30" as="geometry" />
        </mxCell>
        <mxCell id="2VIQsZzZV8RpLs_PZSOd-21" value="h" style="rounded=0;whiteSpace=wrap;html=1;" vertex="1" parent="1">
          <mxGeometry x="240" y="700" width="30" height="20" as="geometry" />
        </mxCell>
        <mxCell id="2VIQsZzZV8RpLs_PZSOd-22" value="e" style="rounded=0;whiteSpace=wrap;html=1;" vertex="1" parent="1">
          <mxGeometry x="270" y="700" width="30" height="20" as="geometry" />
        </mxCell>
        <mxCell id="2VIQsZzZV8RpLs_PZSOd-23" value="l" style="rounded=0;whiteSpace=wrap;html=1;" vertex="1" parent="1">
          <mxGeometry x="300" y="700" width="30" height="20" as="geometry" />
        </mxCell>
        <mxCell id="2VIQsZzZV8RpLs_PZSOd-24" value="l" style="rounded=0;whiteSpace=wrap;html=1;" vertex="1" parent="1">
          <mxGeometry x="330" y="700" width="30" height="20" as="geometry" />
        </mxCell>
        <mxCell id="2VIQsZzZV8RpLs_PZSOd-25" value="o" style="rounded=0;whiteSpace=wrap;html=1;" vertex="1" parent="1">
          <mxGeometry x="360" y="700" width="30" height="20" as="geometry" />
        </mxCell>
        <mxCell id="2VIQsZzZV8RpLs_PZSOd-26" value="\0" style="rounded=0;whiteSpace=wrap;html=1;" vertex="1" parent="1">
          <mxGeometry x="390" y="700" width="30" height="20" as="geometry" />
        </mxCell>
        <mxCell id="2VIQsZzZV8RpLs_PZSOd-40" value="" style="rounded=1;whiteSpace=wrap;html=1;fillColor=#d5e8d4;strokeColor=#82b366;" vertex="1" parent="1">
          <mxGeometry x="329.25" y="440" width="71.5" height="110" as="geometry" />
        </mxCell>
        <mxCell id="2VIQsZzZV8RpLs_PZSOd-41" value="free" style="rounded=0;whiteSpace=wrap;html=1;" vertex="1" parent="1">
          <mxGeometry x="340.75" y="450" width="50" height="30" as="geometry" />
        </mxCell>
        <mxCell id="2VIQsZzZV8RpLs_PZSOd-42" value="len" style="rounded=0;whiteSpace=wrap;html=1;" vertex="1" parent="1">
          <mxGeometry x="340.75" y="480" width="50" height="30" as="geometry" />
        </mxCell>
        <mxCell id="2VIQsZzZV8RpLs_PZSOd-43" style="edgeStyle=orthogonalEdgeStyle;rounded=0;orthogonalLoop=1;jettySize=auto;html=1;entryX=0;entryY=0.5;entryDx=0;entryDy=0;" edge="1" parent="1" source="2VIQsZzZV8RpLs_PZSOd-44" target="2VIQsZzZV8RpLs_PZSOd-45">
          <mxGeometry relative="1" as="geometry" />
        </mxCell>
        <mxCell id="2VIQsZzZV8RpLs_PZSOd-44" value="buf" style="rounded=0;whiteSpace=wrap;html=1;" vertex="1" parent="1">
          <mxGeometry x="340.75" y="510" width="50" height="30" as="geometry" />
        </mxCell>
        <mxCell id="2VIQsZzZV8RpLs_PZSOd-45" value="r" style="rounded=0;whiteSpace=wrap;html=1;" vertex="1" parent="1">
          <mxGeometry x="385" y="640" width="30" height="20" as="geometry" />
        </mxCell>
        <mxCell id="2VIQsZzZV8RpLs_PZSOd-46" value="e" style="rounded=0;whiteSpace=wrap;html=1;" vertex="1" parent="1">
          <mxGeometry x="415" y="640" width="30" height="20" as="geometry" />
        </mxCell>
        <mxCell id="2VIQsZzZV8RpLs_PZSOd-47" value="d" style="rounded=0;whiteSpace=wrap;html=1;" vertex="1" parent="1">
          <mxGeometry x="445" y="640" width="30" height="20" as="geometry" />
        </mxCell>
        <mxCell id="2VIQsZzZV8RpLs_PZSOd-48" value="i" style="rounded=0;whiteSpace=wrap;html=1;" vertex="1" parent="1">
          <mxGeometry x="475" y="640" width="30" height="20" as="geometry" />
        </mxCell>
        <mxCell id="2VIQsZzZV8RpLs_PZSOd-49" value="s" style="rounded=0;whiteSpace=wrap;html=1;" vertex="1" parent="1">
          <mxGeometry x="505" y="640" width="30" height="20" as="geometry" />
        </mxCell>
        <mxCell id="2VIQsZzZV8RpLs_PZSOd-50" value="\0" style="rounded=0;whiteSpace=wrap;html=1;" vertex="1" parent="1">
          <mxGeometry x="535" y="640" width="30" height="20" as="geometry" />
        </mxCell>
        <mxCell id="2VIQsZzZV8RpLs_PZSOd-63" value="" style="rounded=1;whiteSpace=wrap;html=1;fillColor=#d5e8d4;strokeColor=#82b366;" vertex="1" parent="1">
          <mxGeometry x="479.25" y="440" width="71.5" height="110" as="geometry" />
        </mxCell>
        <mxCell id="2VIQsZzZV8RpLs_PZSOd-64" value="free" style="rounded=0;whiteSpace=wrap;html=1;" vertex="1" parent="1">
          <mxGeometry x="490.75" y="450" width="50" height="30" as="geometry" />
        </mxCell>
        <mxCell id="2VIQsZzZV8RpLs_PZSOd-65" value="len" style="rounded=0;whiteSpace=wrap;html=1;" vertex="1" parent="1">
          <mxGeometry x="490.75" y="480" width="50" height="30" as="geometry" />
        </mxCell>
        <mxCell id="2VIQsZzZV8RpLs_PZSOd-66" style="edgeStyle=orthogonalEdgeStyle;rounded=0;orthogonalLoop=1;jettySize=auto;html=1;entryX=0;entryY=0.5;entryDx=0;entryDy=0;" edge="1" parent="1" source="2VIQsZzZV8RpLs_PZSOd-67" target="2VIQsZzZV8RpLs_PZSOd-68">
          <mxGeometry relative="1" as="geometry" />
        </mxCell>
        <mxCell id="2VIQsZzZV8RpLs_PZSOd-67" value="buf" style="rounded=0;whiteSpace=wrap;html=1;" vertex="1" parent="1">
          <mxGeometry x="490.75" y="510" width="50" height="30" as="geometry" />
        </mxCell>
        <mxCell id="2VIQsZzZV8RpLs_PZSOd-68" value="a" style="rounded=0;whiteSpace=wrap;html=1;" vertex="1" parent="1">
          <mxGeometry x="535.75" y="600" width="30" height="20" as="geometry" />
        </mxCell>
        <mxCell id="2VIQsZzZV8RpLs_PZSOd-69" value="r" style="rounded=0;whiteSpace=wrap;html=1;" vertex="1" parent="1">
          <mxGeometry x="565.75" y="600" width="30" height="20" as="geometry" />
        </mxCell>
        <mxCell id="2VIQsZzZV8RpLs_PZSOd-70" value="e" style="rounded=0;whiteSpace=wrap;html=1;" vertex="1" parent="1">
          <mxGeometry x="595.75" y="600" width="30" height="20" as="geometry" />
        </mxCell>
        <mxCell id="2VIQsZzZV8RpLs_PZSOd-71" value="y" style="rounded=0;whiteSpace=wrap;html=1;" vertex="1" parent="1">
          <mxGeometry x="625.75" y="600" width="30" height="20" as="geometry" />
        </mxCell>
        <mxCell id="2VIQsZzZV8RpLs_PZSOd-72" value="o" style="rounded=0;whiteSpace=wrap;html=1;" vertex="1" parent="1">
          <mxGeometry x="655.75" y="600" width="30" height="20" as="geometry" />
        </mxCell>
        <mxCell id="2VIQsZzZV8RpLs_PZSOd-73" value="u" style="rounded=0;whiteSpace=wrap;html=1;" vertex="1" parent="1">
          <mxGeometry x="685.75" y="600" width="30" height="20" as="geometry" />
        </mxCell>
        <mxCell id="2VIQsZzZV8RpLs_PZSOd-76" value="k" style="rounded=0;whiteSpace=wrap;html=1;" vertex="1" parent="1">
          <mxGeometry x="745.75" y="600" width="30" height="20" as="geometry" />
        </mxCell>
        <mxCell id="2VIQsZzZV8RpLs_PZSOd-77" value="o" style="rounded=0;whiteSpace=wrap;html=1;" vertex="1" parent="1">
          <mxGeometry x="715.75" y="600" width="30" height="20" as="geometry" />
        </mxCell>
        <mxCell id="2VIQsZzZV8RpLs_PZSOd-78" value="\0" style="rounded=0;whiteSpace=wrap;html=1;" vertex="1" parent="1">
          <mxGeometry x="775.75" y="600" width="30" height="20" as="geometry" />
        </mxCell>
        <mxCell id="2VIQsZzZV8RpLs_PZSOd-79" value="" style="rounded=1;whiteSpace=wrap;html=1;fillColor=#dae8fc;strokeColor=#6c8ebf;" vertex="1" parent="1">
          <mxGeometry x="175" y="170" width="355" height="110" as="geometry" />
        </mxCell>
        <mxCell id="2VIQsZzZV8RpLs_PZSOd-81" style="edgeStyle=orthogonalEdgeStyle;rounded=0;orthogonalLoop=1;jettySize=auto;html=1;entryX=0;entryY=0.5;entryDx=0;entryDy=0;" edge="1" parent="1" source="2VIQsZzZV8RpLs_PZSOd-80" target="2VIQsZzZV8RpLs_PZSOd-8">
          <mxGeometry relative="1" as="geometry" />
        </mxCell>
        <mxCell id="2VIQsZzZV8RpLs_PZSOd-80" value="head" style="rounded=0;whiteSpace=wrap;html=1;" vertex="1" parent="1">
          <mxGeometry x="200" y="200" width="50" height="50" as="geometry" />
        </mxCell>
        <mxCell id="2VIQsZzZV8RpLs_PZSOd-87" style="edgeStyle=orthogonalEdgeStyle;rounded=0;orthogonalLoop=1;jettySize=auto;html=1;entryX=1;entryY=0.5;entryDx=0;entryDy=0;" edge="1" parent="1" source="2VIQsZzZV8RpLs_PZSOd-82" target="2VIQsZzZV8RpLs_PZSOd-7">
          <mxGeometry relative="1" as="geometry">
            <Array as="points">
              <mxPoint x="275" y="300" />
              <mxPoint x="590" y="300" />
              <mxPoint x="590" y="360" />
            </Array>
          </mxGeometry>
        </mxCell>
        <mxCell id="2VIQsZzZV8RpLs_PZSOd-82" value="tail" style="rounded=0;whiteSpace=wrap;html=1;" vertex="1" parent="1">
          <mxGeometry x="250" y="200" width="50" height="50" as="geometry" />
        </mxCell>
        <mxCell id="2VIQsZzZV8RpLs_PZSOd-84" value="len(3)" style="rounded=0;whiteSpace=wrap;html=1;" vertex="1" parent="1">
          <mxGeometry x="300" y="200" width="50" height="50" as="geometry" />
        </mxCell>
        <mxCell id="2VIQsZzZV8RpLs_PZSOd-85" value="dup" style="rounded=0;whiteSpace=wrap;html=1;" vertex="1" parent="1">
          <mxGeometry x="350" y="200" width="50" height="50" as="geometry" />
        </mxCell>
        <mxCell id="2VIQsZzZV8RpLs_PZSOd-86" value="free" style="rounded=0;whiteSpace=wrap;html=1;" vertex="1" parent="1">
          <mxGeometry x="400" y="200" width="50" height="50" as="geometry" />
        </mxCell>
        <mxCell id="2VIQsZzZV8RpLs_PZSOd-88" value="match" style="rounded=0;whiteSpace=wrap;html=1;" vertex="1" parent="1">
          <mxGeometry x="450" y="200" width="50" height="50" as="geometry" />
        </mxCell>
        <mxCell id="2VIQsZzZV8RpLs_PZSOd-89" value="List链表" style="text;html=1;align=center;verticalAlign=middle;whiteSpace=wrap;rounded=0;" vertex="1" parent="1">
          <mxGeometry x="315" y="130" width="60" height="30" as="geometry" />
        </mxCell>
      </root>
    </mxGraphModel>
  </diagram>
</mxfile>
